<?xml version="1.0" encoding="UTF-8" standalone="no"?>
<svg xmlns="http://www.w3.org/2000/svg" xmlns:xlink="http://www.w3.org/1999/xlink" version="1.1" viewBox="0 0 1000 1000">
  <polygon points="280,653 373,679 255,840" fill="black" stroke="black" stroke-linejoin="round" stroke-width="3" />
  <polygon points="102,634 298,439 373,430 297,540 447,585 387,674 281,646 285,575" fill="black" stroke="black" stroke-linejoin="round" stroke-width="3" />
  <polygon points="312,528 386,425 431,428" fill="black" stroke="black" stroke-linejoin="round" stroke-width="3" />
  <polygon points="332,520 485,397 513,414 496,435" fill="black" stroke="black" stroke-linejoin="round" stroke-width="3" />
  <polygon points="316,534 492,443 467,467 521,509 515,543 565,587 560,592 498,549" fill="black" stroke="black" stroke-linejoin="round" stroke-width="3" />
  <polygon points="318,542 496,557 555,595 548,605" fill="black" stroke="black" stroke-linejoin="round" stroke-width="3" />
  <polygon points="550,611 574,592 599,618" fill="black" stroke="black" stroke-linejoin="round" stroke-width="3" />
  <polygon points="476,466 543,399 521,500" fill="black" stroke="black" stroke-linejoin="round" stroke-width="3" />
  <polygon points="525,524 555,392 600,427" fill="black" stroke="black" stroke-linejoin="round" stroke-width="3" />
  <polygon points="522,542 605,435 597,604" fill="black" stroke="black" stroke-linejoin="round" stroke-width="3" />
  <polygon points="613,444 743,521 685,543 775,833 554,617 605,625" fill="black" stroke="black" stroke-linejoin="round" stroke-width="3" />
  <polygon points="565,318 620,318 655,457 613,434" fill="black" stroke="black" stroke-linejoin="round" stroke-width="3" />
  <polygon points="629,310 695,204 751,184 733,267 740,508 661,462" fill="black" stroke="black" stroke-linejoin="round" stroke-width="3" />
  <polygon points="757,183 869,81 776,196" fill="black" stroke="black" stroke-linejoin="round" stroke-width="3" />
  <polygon points="743,273 755,194 848,270 853,338" fill="black" stroke="black" stroke-linejoin="round" stroke-width="3" />
</svg>